<?xml version="1.0" encoding="UTF-8"?>
<!DOCTYPE svg PUBLIC "-//W3C//DTD SVG 1.1//EN" "http://www.w3.org/Graphics/SVG/1.1/DTD/svg11.dtd">
<svg version="1.1" xmlns="http://www.w3.org/2000/svg" xmlns:xlink="http://www.w3.org/1999/xlink" x="0" y="0" width="357.165" height="102.047" viewBox="0, 0, 357.165, 102.047">
  <g id="white">
    <g display="none">
      <path d="M-95,-51 L418,-51 L418,179 L-95,179 L-95,-51 z" fill="#125780"/>
      <path d="M-95,-51 L418,-51 L418,179 L-95,179 L-95,-51 z" fill-opacity="0" stroke="#000000" stroke-width="1"/>
    </g>
    <path d="M81.675,78.043 L80.079,78.043 Q78.027,78.043 75.937,78.233 Q73.847,78.423 72.213,78.955 Q70.579,79.487 69.515,80.513 Q68.451,81.539 68.451,83.211 Q68.451,84.275 68.945,85.035 Q69.439,85.795 70.199,86.251 Q70.959,86.707 71.947,86.897 Q72.935,87.087 73.847,87.087 Q77.647,87.087 79.661,84.997 Q81.675,82.907 81.675,79.335 z M58.799,61.855 Q62.143,58.663 66.589,57.067 Q71.035,55.471 75.671,55.471 Q80.459,55.471 83.765,56.649 Q87.071,57.827 89.123,60.297 Q91.175,62.767 92.125,66.529 Q93.075,70.291 93.075,75.459 L93.075,94.535 L81.675,94.535 L81.675,90.507 L81.447,90.507 Q80.003,92.863 77.077,94.155 Q74.151,95.447 70.731,95.447 Q68.451,95.447 66.019,94.839 Q63.587,94.231 61.573,92.863 Q59.559,91.495 58.267,89.215 Q56.975,86.935 56.975,83.591 Q56.975,79.487 59.217,76.979 Q61.459,74.471 64.993,73.103 Q68.527,71.735 72.859,71.279 Q77.191,70.823 81.295,70.823 L81.295,70.215 Q81.295,67.403 79.319,66.073 Q77.343,64.743 74.455,64.743 Q71.795,64.743 69.325,65.883 Q66.855,67.023 65.107,68.619 z" fill="#FFFFFF"/>
    <path d="M102.499,94.535 L102.499,37.079 L115.115,37.079 L115.115,94.535 z" fill="#FFFFFF"/>
    <path d="M151.063,71.279 Q151.063,68.315 149.201,66.187 Q147.339,64.059 143.615,64.059 Q141.791,64.059 140.271,64.629 Q138.751,65.199 137.611,66.187 Q136.471,67.175 135.787,68.505 Q135.103,69.835 135.027,71.279 z M162.539,76.067 Q162.539,76.827 162.539,77.587 Q162.539,78.347 162.463,79.031 L135.027,79.031 Q135.179,80.627 135.977,81.919 Q136.775,83.211 138.029,84.161 Q139.283,85.111 140.841,85.643 Q142.399,86.175 144.071,86.175 Q147.035,86.175 149.087,85.073 Q151.139,83.971 152.431,82.223 L161.095,87.695 Q158.435,91.571 154.065,93.661 Q149.695,95.751 143.919,95.751 Q139.663,95.751 135.863,94.421 Q132.063,93.091 129.213,90.545 Q126.363,87.999 124.729,84.275 Q123.095,80.551 123.095,75.763 Q123.095,71.127 124.691,67.365 Q126.287,63.603 129.023,60.981 Q131.759,58.359 135.483,56.915 Q139.207,55.471 143.539,55.471 Q147.719,55.471 151.215,56.877 Q154.711,58.283 157.219,60.943 Q159.727,63.603 161.133,67.403 Q162.539,71.203 162.539,76.067 z" fill="#FFFFFF"/>
    <path d="M195.143,94.535 L195.143,73.863 Q195.143,72.267 194.877,70.823 Q194.611,69.379 194.003,68.277 Q193.395,67.175 192.293,66.529 Q191.191,65.883 189.519,65.883 Q187.847,65.883 186.593,66.529 Q185.339,67.175 184.503,68.315 Q183.667,69.455 183.249,70.937 Q182.831,72.419 182.831,74.015 L182.831,94.535 L170.291,94.535 L170.291,56.687 L182.375,56.687 L182.375,61.931 L182.527,61.931 Q183.211,60.715 184.313,59.537 Q185.415,58.359 186.897,57.523 Q188.379,56.687 190.127,56.155 Q191.875,55.623 193.851,55.623 Q197.651,55.623 200.311,56.991 Q202.971,58.359 204.605,60.525 Q206.239,62.691 206.961,65.503 Q207.683,68.315 207.683,71.127 L207.683,94.535 z" fill="#FFFFFF"/>
    <path d="M230.635,66.035 L230.635,80.475 Q230.635,83.135 231.661,84.465 Q232.687,85.795 235.347,85.795 Q236.259,85.795 237.285,85.643 Q238.311,85.491 238.995,85.187 L239.147,94.307 Q237.855,94.763 235.879,95.105 Q233.903,95.447 231.927,95.447 Q228.127,95.447 225.543,94.497 Q222.959,93.547 221.401,91.761 Q219.843,89.975 219.159,87.505 Q218.475,85.035 218.475,81.995 L218.475,66.035 L212.395,66.035 L212.395,56.687 L218.399,56.687 L218.399,46.731 L230.635,46.731 L230.635,56.687 L239.527,56.687 L239.527,66.035 z" fill="#FFFFFF"/>
    <path d="M271.447,71.279 Q271.447,68.315 269.585,66.187 Q267.723,64.059 263.999,64.059 Q262.175,64.059 260.655,64.629 Q259.135,65.199 257.995,66.187 Q256.855,67.175 256.171,68.505 Q255.487,69.835 255.411,71.279 z M282.923,76.067 Q282.923,76.827 282.923,77.587 Q282.923,78.347 282.847,79.031 L255.411,79.031 Q255.563,80.627 256.361,81.919 Q257.159,83.211 258.413,84.161 Q259.667,85.111 261.225,85.643 Q262.783,86.175 264.455,86.175 Q267.419,86.175 269.471,85.073 Q271.523,83.971 272.815,82.223 L281.479,87.695 Q278.819,91.571 274.449,93.661 Q270.079,95.751 264.303,95.751 Q260.047,95.751 256.247,94.421 Q252.447,93.091 249.597,90.545 Q246.747,87.999 245.113,84.275 Q243.479,80.551 243.479,75.763 Q243.479,71.127 245.075,67.365 Q246.671,63.603 249.407,60.981 Q252.143,58.359 255.867,56.915 Q259.591,55.471 263.923,55.471 Q268.103,55.471 271.599,56.877 Q275.095,58.283 277.603,60.943 Q280.111,63.603 281.517,67.403 Q282.923,71.203 282.923,76.067 z" fill="#FFFFFF"/>
    <path d="M315.223,66.871 Q314.387,66.643 313.589,66.567 Q312.791,66.491 312.031,66.491 Q309.523,66.491 307.813,67.403 Q306.103,68.315 305.077,69.607 Q304.051,70.899 303.595,72.419 Q303.139,73.939 303.139,75.079 L303.139,94.535 L290.675,94.535 L290.675,56.687 L302.683,56.687 L302.683,62.159 L302.835,62.159 Q304.279,59.271 306.939,57.447 Q309.599,55.623 313.095,55.623 Q313.855,55.623 314.577,55.699 Q315.299,55.775 315.755,55.927 z" fill="#FFFFFF"/>
    <path d="M341.899,78.043 L340.303,78.043 Q338.251,78.043 336.161,78.233 Q334.071,78.423 332.437,78.955 Q330.803,79.487 329.739,80.513 Q328.675,81.539 328.675,83.211 Q328.675,84.275 329.169,85.035 Q329.663,85.795 330.423,86.251 Q331.183,86.707 332.171,86.897 Q333.159,87.087 334.071,87.087 Q337.871,87.087 339.885,84.997 Q341.899,82.907 341.899,79.335 z M319.023,61.855 Q322.367,58.663 326.813,57.067 Q331.259,55.471 335.895,55.471 Q340.683,55.471 343.989,56.649 Q347.295,57.827 349.347,60.297 Q351.399,62.767 352.349,66.529 Q353.299,70.291 353.299,75.459 L353.299,94.535 L341.899,94.535 L341.899,90.507 L341.671,90.507 Q340.227,92.863 337.301,94.155 Q334.375,95.447 330.955,95.447 Q328.675,95.447 326.243,94.839 Q323.811,94.231 321.797,92.863 Q319.783,91.495 318.491,89.215 Q317.199,86.935 317.199,83.591 Q317.199,79.487 319.441,76.979 Q321.683,74.471 325.217,73.103 Q328.751,71.735 333.083,71.279 Q337.415,70.823 341.519,70.823 L341.519,70.215 Q341.519,67.403 339.543,66.073 Q337.567,64.743 334.679,64.743 Q332.019,64.743 329.549,65.883 Q327.079,67.023 325.331,68.619 z" fill="#FFFFFF"/>
    <g>
      <path d="M48.361,36.902 L48.361,94.651 L27.999,94.651 L27.999,36.902 L48.361,36.902 z" fill="#FFFFFF"/>
      <path d="M27.499,72.62 L27.499,86.129 C25.364,85.972 24.53,84.941 24.076,82.998 L24.075,75.751 C24.172,73.821 25.795,72.917 27.499,72.62 z" fill="#FFFFFF"/>
      <path d="M27.499,45.424 L27.499,58.933 C25.364,58.776 24.53,57.745 24.076,55.801 L24.075,48.555 C24.172,46.625 25.795,45.721 27.499,45.424 z" fill="#FFFFFF"/>
    </g>
    <g>
      <path d="M66.239,31.579 L8.585,34.902 L7.413,14.573 L65.068,11.251 L66.239,31.579 z" fill="#FFFFFF"/>
      <path d="M29.38,12.806 L15.893,13.584 C15.927,11.444 16.908,10.552 18.822,9.986 L26.056,9.569 C27.989,9.554 28.985,11.123 29.38,12.806 z" fill="#FFFFFF"/>
      <path d="M56.531,11.242 L43.044,12.019 C43.078,9.879 44.059,8.987 45.973,8.421 L53.208,8.004 C55.14,7.99 56.136,9.558 56.531,11.242 z" fill="#FFFFFF"/>
    </g>
  </g>
  <g id="black" display="none">
    <text transform="matrix(1, 0, 0, 1, 187.087, 71.535)">
      <tspan x="-170.62" y="23" font-family="AvenirNext-Bold" font-size="76" fill="#000000">  alentera</tspan>
    </text>
    <g>
      <path d="M48.361,36.902 L48.361,94.651 L27.999,94.651 L27.999,36.902 L48.361,36.902 z" fill="#000000"/>
      <path d="M27.499,72.62 L27.499,86.129 C25.364,85.972 24.53,84.941 24.076,82.998 L24.075,75.751 C24.172,73.821 25.795,72.917 27.499,72.62 z" fill="#000000"/>
      <path d="M27.499,45.424 L27.499,58.933 C25.364,58.776 24.53,57.745 24.076,55.801 L24.075,48.555 C24.172,46.625 25.795,45.721 27.499,45.424 z" fill="#000000"/>
    </g>
    <g>
      <path d="M66.239,31.579 L8.585,34.902 L7.413,14.573 L65.068,11.251 L66.239,31.579 z" fill="#000000"/>
      <path d="M29.38,12.806 L15.893,13.584 C15.927,11.444 16.908,10.552 18.822,9.986 L26.056,9.569 C27.989,9.554 28.985,11.123 29.38,12.806 z" fill="#000000"/>
      <path d="M56.531,11.242 L43.044,12.019 C43.078,9.879 44.059,8.987 45.973,8.421 L53.208,8.004 C55.14,7.99 56.136,9.558 56.531,11.242 z" fill="#000000"/>
    </g>
  </g>
  <g id="color" display="none">
    <text transform="matrix(1, 0, 0, 1, 187.087, 71.535)">
      <tspan x="-170.62" y="23" font-family="AvenirNext-Bold" font-size="76" fill="#272727">  alentera</tspan>
    </text>
    <g>
      <path d="M48.361,36.902 L48.361,94.651 L27.999,94.651 L27.999,36.902 L48.361,36.902 z M46.861,38.402 L29.499,38.402 L29.499,93.151 L46.861,93.151 L46.861,38.402 z" fill="#272727"/>
      <path d="M27.499,72.62 L27.499,86.129 C25.364,85.972 24.53,84.941 24.076,82.998 L24.075,75.751 C24.172,73.821 25.795,72.917 27.499,72.62 z" fill="#272727"/>
      <path d="M27.499,45.424 L27.499,58.933 C25.364,58.776 24.53,57.745 24.076,55.801 L24.075,48.555 C24.172,46.625 25.795,45.721 27.499,45.424 z" fill="#272727"/>
    </g>
    <g>
      <path d="M65.068,11.25 L66.239,31.579 L8.585,34.902 L7.413,14.573 L65.068,11.25 z" fill="#272727"/>
      <path d="M26.056,9.569 C27.989,9.554 28.985,11.123 29.38,12.806 L15.893,13.583 C15.927,11.444 16.908,10.552 18.822,9.986 L26.056,9.569 z" fill="#272727"/>
      <path d="M53.208,8.004 C55.14,7.99 56.136,9.558 56.531,11.242 L43.044,12.019 C43.078,9.879 44.059,8.987 45.973,8.421 L53.208,8.004 z" fill="#272727"/>
    </g>
  </g>
</svg>
